HIERARCHY
ROOT hip
{
  OFFSET 0 0 0
  CHANNELS 6 Xposition Yposition Zposition Zrotation Yrotation Xrotation
  JOINT abdomen
  {
    OFFSET 0 20.6881 -0.73152
    CHANNELS 3 Zrotation Xrotation Yrotation
    JOINT chest
    {
      OFFSET 0 11.7043 -0.48768
      CHANNELS 3 Zrotation Xrotation Yrotation
      JOINT neck
      {
        OFFSET 0 22.1894 -2.19456
        CHANNELS 3 Zrotation Xrotation Yrotation
        JOINT head
        {
          OFFSET -0.24384 7.07133 1.2192
          CHANNELS 3 Zrotation Xrotation Yrotation
          JOINT leftEye
          {
            OFFSET 4.14528 8.04674 8.04672
            CHANNELS 3 Zrotation Xrotation Yrotation
            End Site
            {
              OFFSET 1 0 0
            }
          }
          JOINT rightEye
          {
            OFFSET -3.6576 8.04674 8.04672
            CHANNELS 3 Zrotation Xrotation Yrotation
            End Site
            {
              OFFSET 1 0 0
            }
          }
        }
      }
      JOINT rCollar
      {
        OFFSET -2.68224 19.2634 -4.8768
        CHANNELS 3 Zrotation Xrotation Yrotation
        JOINT rShldr
        {
          OFFSET -8.77824 -1.95073 1.46304
          CHANNELS 3 Zrotation Xrotation Yrotation
          JOINT rForeArm
          {
            OFFSET -28.1742 -1.7115 0.48768
            CHANNELS 3 Zrotation Xrotation Yrotation
            JOINT rHand
            {
              OFFSET -22.5879 0.773209 7.07136
              CHANNELS 3 Zrotation Xrotation Yrotation
              JOINT rThumb1
              {
                OFFSET -1.2192 -0.487915 3.41376
                CHANNELS 3 Zrotation Xrotation Yrotation
                JOINT rThumb2
                {
                  OFFSET -3.37035 -0.52449 3.41376
                  CHANNELS 3 Zrotation Xrotation Yrotation
                  End Site
                  {
                    OFFSET -1.78271 -1.18214 1.43049
                  }
                }
              }
              JOINT rIndex1
              {
                OFFSET -7.75947 0.938293 5.60832
                CHANNELS 3 Zrotation Xrotation Yrotation
                JOINT rIndex2
                {
                  OFFSET -2.54057 -0.884171 1.56538
                  CHANNELS 3 Zrotation Xrotation Yrotation
                  End Site
                  {
                    OFFSET -1.62519 -0.234802 1.16502
                  }
                }
              }
              JOINT rMid1
              {
                OFFSET -8.24714 1.18213 3.41376
                CHANNELS 3 Zrotation Xrotation Yrotation
                JOINT rMid2
                {
                  OFFSET -3.10165 -0.590103 1.0647
                  CHANNELS 3 Zrotation Xrotation Yrotation
                  End Site
                  {
                    OFFSET -2.48547 -0.328903 0.83742
                  }
                }
              }
              JOINT rRing1
              {
                OFFSET -8.82822 0.546677 1.51678
                CHANNELS 3 Zrotation Xrotation Yrotation
                JOINT rRing2
                {
                  OFFSET -2.60934 -0.819778 -0.0198488
                  CHANNELS 3 Zrotation Xrotation Yrotation
                  End Site
                  {
                    OFFSET -2.33842 -0.294052 0.168128
                  }
                }
              }
              JOINT rPinky1
              {
                OFFSET -8.27202 -0.0477905 -0.4584
                CHANNELS 3 Zrotation Xrotation Yrotation
                JOINT rPinky2
                {
                  OFFSET -1.82734 -0.647385 -0.700984
                  CHANNELS 3 Zrotation Xrotation Yrotation
                  End Site
                  {
                    OFFSET -1.69225 -0.51767 -0.607171
                  }
                }
              }
            }
          }
        }
      }
      JOINT lCollar
      {
        OFFSET 2.68224 19.2634 -4.8768
        CHANNELS 3 Zrotation Xrotation Yrotation
        JOINT lShldr
        {
          OFFSET 8.77824 -1.95073 1.46304
          CHANNELS 3 Zrotation Xrotation Yrotation
          JOINT lForeArm
          {
            OFFSET 28.1742 -1.7115 0.48768
            CHANNELS 3 Zrotation Xrotation Yrotation
            JOINT lHand
            {
              OFFSET 22.5879 0.773209 7.07136
              CHANNELS 3 Zrotation Xrotation Yrotation
              JOINT lThumb1
              {
                OFFSET 1.2192 -0.487915 3.41376
                CHANNELS 3 Zrotation Xrotation Yrotation
                JOINT lThumb2
                {
                  OFFSET 3.37035 -0.52449 3.41376
                  CHANNELS 3 Zrotation Xrotation Yrotation
                  End Site
                  {
                    OFFSET 1.78271 -1.18214 1.43049
                  }
                }
              }
              JOINT lIndex1
              {
                OFFSET 7.75947 0.938293 5.60832
                CHANNELS 3 Zrotation Xrotation Yrotation
                JOINT lIndex2
                {
                  OFFSET 2.54057 -0.884171 1.56538
                  CHANNELS 3 Zrotation Xrotation Yrotation
                  End Site
                  {
                    OFFSET 1.62519 -0.234802 1.16502
                  }
                }
              }
              JOINT lMid1
              {
                OFFSET 8.24714 1.18213 3.41376
                CHANNELS 3 Zrotation Xrotation Yrotation
                JOINT lMid2
                {
                  OFFSET 3.10165 -0.590103 1.0647
                  CHANNELS 3 Zrotation Xrotation Yrotation
                  End Site
                  {
                    OFFSET 2.48547 -0.328903 0.83742
                  }
                }
              }
              JOINT lRing1
              {
                OFFSET 8.82822 0.546677 1.51678
                CHANNELS 3 Zrotation Xrotation Yrotation
                JOINT lRing2
                {
                  OFFSET 2.60934 -0.819778 -0.0198488
                  CHANNELS 3 Zrotation Xrotation Yrotation
                  End Site
                  {
                    OFFSET 2.33842 -0.294052 0.168128
                  }
                }
              }
              JOINT lPinky1
              {
                OFFSET 8.27202 -0.0477905 -0.4584
                CHANNELS 3 Zrotation Xrotation Yrotation
                JOINT lPinky2
                {
                  OFFSET 1.82734 -0.647385 -0.700984
                  CHANNELS 3 Zrotation Xrotation Yrotation
                  End Site
                  {
                    OFFSET 1.69225 -0.51767 -0.607171
                  }
                }
              }
            }
          }
        }
      }
    }
  }
  JOINT rButtock
  {
    OFFSET -8.77824 4.35084 1.2192
    CHANNELS 3 Zrotation Xrotation Yrotation
    JOINT rThigh
    {
      OFFSET 0 -1.70687 -2.19456
      CHANNELS 3 Zrotation Xrotation Yrotation
      JOINT rShin
      {
        OFFSET 0 -36.8199 0.73152
        CHANNELS 3 Zrotation Xrotation Yrotation
        JOINT rFoot
        {
          OFFSET 0.73152 -45.1104 -5.12064
          CHANNELS 3 Zrotation Xrotation Yrotation
          End Site
          {
            OFFSET -1.1221 -3.69964 12.103
          }
        }
      }
    }
  }
  JOINT lButtock
  {
    OFFSET 8.77824 4.35084 1.2192
    CHANNELS 3 Zrotation Xrotation Yrotation
    JOINT lThigh
    {
      OFFSET 0 -1.70687 -2.19456
      CHANNELS 3 Zrotation Xrotation Yrotation
      JOINT lShin
      {
        OFFSET 0 -36.8199 0.73152
        CHANNELS 3 Zrotation Xrotation Yrotation
        JOINT lFoot
        {
          OFFSET -0.73152 -45.1104 -5.12064
          CHANNELS 3 Zrotation Xrotation Yrotation
          End Site
          {
            OFFSET 1.1221 -3.69964 12.103
          }
        }
      }
    }
  }
}
MOTION
Frames:	5
Frame Time:	0.00833333
6.34578 85.0114 -89.8777 0.0 0.0 0.0 0.0256061 -6.19125e-06 0.000728832 0.00706471 8.63212e-06 0.00122381 -6.24394e-18 0.0 8.54153e-18 -1.55301e-17 3.18055e-15 2.48481e-17 -0.0 0.0 0.0 -0.0 0.0 0.0 4.83714e-17 -1.94126e-19 1.49089e-16 1.9596e-15 0.0 7.95139e-16 -1.49089e-15 -1.78906e-15 3.18055e-15 -4.88265e-15 -6.26172e-15 1.27222e-14 -1.56182e-14 -1.66297e-14 3.81667e-14 -3.65764e-14 -2.54444e-14 6.67917e-14 -9.93923e-15 -1.43125e-14 2.54444e-14 7.73091 5.47488 0.417314 -1.61513e-14 -1.64991e-14 4.13472e-14 2.90554 0.965183 0.102902 -7.47927e-15 -1.63003e-14 3.89618e-14 10.2786 0.731801 0.0259123 -2.04748e-14 -1.55052e-14 5.08889e-14 2.22167 -0.733487 -0.20892 -4.83714e-17 -1.94126e-19 -1.49089e-16 -1.9562e-15 1.98785e-16 -5.96354e-16 3.47873e-15 -7.95139e-16 -2.22639e-14 -1.14612e-14 -4.72114e-16 4.45278e-14 -1.43668e-14 -4.70299e-15 3.49861e-14 -1.66979e-14 -1.27222e-14 7.55382e-14 -1.82882e-14 -3.97569e-15 5.08889e-14 -7.73091 5.47488 -0.417314 -1.43125e-14 -4.67144e-15 3.81667e-14 -2.90554 0.965183 -0.102902 -2.04872e-14 -4.77083e-15 3.89618e-14 -10.2786 0.731801 -0.0259123 -9.1441e-15 -3.18055e-15 3.49861e-14 -2.22167 -0.733487 0.20892 -2.03217e-16 0.0 -3.88251e-19 0.512306 -3.13364 -0.0420887 -0.00562807 0.123098 -0.0495528 -0.492806 3.00963 0.117361 2.03217e-16 0.0 3.88251e-19 -0.473318 -3.03453 0.0397102 0.00592193 -0.0564344 0.0521746 0.492498 3.09005 -0.118955
6.14332 83.7326 -91.2669 -0.4087 -1.8173 5.0137 0.308929 1.58268 -0.497096 0.844443 -0.724711 -0.117406 -2.32367 -0.770825 -1.05855 2.37395 -2.52333 -1.14084 -0.0 0.0 0.0 -0.0 0.0 0.0 4.64029e-15 -8.74814e-15 9.42364e-15 21.3429 4.63009 0.237383 -4.84859 -2.34461 7.41317 0.00429844 1.45444 0.204171 -1.29327e-10 1.059e-10 5.20742e-11 -2.23087e-10 1.83048e-10 9.10043e-11 -1.29321e-10 1.05902e-10 5.20633e-11 7.73091 5.47488 0.417314 -1.29328e-10 1.059e-10 5.20785e-11 2.90554 0.965183 0.102902 -1.2932e-10 1.059e-10 5.20758e-11 10.2786 0.731801 0.0259123 -1.29331e-10 1.05901e-10 5.20871e-11 2.22167 -0.733487 -0.20892 4.58796e-15 -8.74519e-15 9.15031e-15 -22.4205 5.84067 -1.21905 3.94457 -1.74085 -6.21572 -0.00880211 2.08442 -0.29225 -1.56585e-10 -1.98044e-10 -2.43191e-10 -2.72628e-10 -3.43127e-10 -4.19612e-10 -1.56593e-10 -1.98048e-10 -2.43179e-10 -7.73091 5.47488 -0.417314 -1.56588e-10 -1.98049e-10 -2.4319e-10 -2.90554 0.965183 -0.102902 -1.56595e-10 -1.9805e-10 -2.4319e-10 -10.2786 0.731801 -0.0259123 -1.56579e-10 -1.98047e-10 -2.43192e-10 -2.22167 -0.733487 0.20892 -2.03217e-16 0.0 -3.88251e-19 0.697071 -5.82518 1.49077 -0.00138752 5.51641 0.0399306 -0.636183 0.633645 -2.71284 2.03217e-16 0.0 3.88251e-19 -0.302091 -5.81209 -0.76071 0.000617354 5.49577 -0.041488 0.579113 0.0143124 1.46588
6.1438 83.7332 -91.2589 -0.4045 -1.804 4.9789 0.636778 3.25321 -1.0232 1.72818 -1.48997 -0.242483 -4.81038 -1.58133 -2.17686 4.7701 -5.18629 -2.35268 -0.0 0.0 0.0 -0.0 0.0 0.0 9.65608e-15 -1.67011e-14 1.86609e-14 43.8623 9.52927 0.487067 -9.32175 -4.69344 15.2915 -0.00244013 2.99032 0.420219 -2.64135e-10 2.24006e-10 9.83036e-11 -4.55643e-10 3.87221e-10 1.71951e-10 -2.6413e-10 2.24006e-10 9.82946e-11 7.73091 5.47488 0.417314 -2.64137e-10 2.24004e-10 9.8309e-11 2.90554 0.965183 0.102902 -2.6413e-10 2.24004e-10 9.83059e-11 10.2786 0.731801 0.0259123 -2.64138e-10 2.24006e-10 9.83167e-11 2.22167 -0.733487 -0.20892 9.65148e-15 -1.66949e-14 1.84124e-14 -45.848 12.0 -2.54661 7.70674 -3.51306 -12.8054 0.00512133 4.30085 -0.604327 -3.29986e-10 -4.02621e-10 -4.99839e-10 -5.74473e-10 -6.97564e-10 -8.62431e-10 -3.29998e-10 -4.0263e-10 -4.99833e-10 -7.73091 5.47488 -0.417314 -3.29993e-10 -4.02631e-10 -4.99842e-10 -2.90554 0.965183 -0.102902 -3.30001e-10 -4.02632e-10 -4.99843e-10 -10.2786 0.731801 -0.0259123 -3.2998e-10 -4.02628e-10 -4.99843e-10 -2.22167 -0.733487 0.20892 -2.03217e-16 0.0 -3.88251e-19 1.04932 -8.66209 3.13402 -0.0156217 11.2165 0.136729 -1.04234 -1.86714 -5.70497 2.03217e-16 0.0 3.88251e-19 -0.207983 -8.74309 -1.61575 0.0150347 11.3621 -0.142892 0.856471 -3.23285 3.15221
6.15104 83.7315 -91.2637 -0.4097 -1.6865 4.9996 0.958316 4.7466 -1.49731 2.51019 -2.17411 -0.354892 -7.05647 -2.30932 -3.17795 6.81834 -7.55794 -3.44921 -0.0 0.0 0.0 -0.0 0.0 0.0 1.38241e-14 -2.6244e-14 2.79727e-14 63.9105 13.8893 0.731205 -12.7664 -6.56387 22.3753 -0.018278 4.36311 0.614095 -3.87949e-10 3.17735e-10 1.56146e-10 -6.69189e-10 5.49194e-10 2.72879e-10 -3.87945e-10 3.17734e-10 1.56139e-10 7.73091 5.47488 0.417314 -3.87951e-10 3.17732e-10 1.56153e-10 2.90554 0.965183 0.102902 -3.87946e-10 3.17733e-10 1.56149e-10 10.2786 0.731801 0.0259123 -3.87952e-10 3.17734e-10 1.5616e-10 2.22167 -0.733487 -0.20892 1.38606e-14 -2.62352e-14 2.77491e-14 -66.4856 17.4895 -3.81476 10.7192 -4.97717 -18.7117 0.0377083 6.25261 -0.881412 -4.69727e-10 -5.94124e-10 -7.29642e-10 -8.17851e-10 -1.02936e-09 -1.25899e-09 -4.69742e-10 -5.94137e-10 -7.29639e-10 -7.73091 5.47488 -0.417314 -4.69736e-10 -5.94139e-10 -7.29647e-10 -2.90554 0.965183 -0.102902 -4.69745e-10 -5.9414e-10 -7.29648e-10 -10.2786 0.731801 -0.0259123 -4.69719e-10 -5.94134e-10 -7.29647e-10 -2.22167 -0.733487 0.20892 -2.03217e-16 0.0 -3.88251e-19 1.50575 -11.1786 4.62113 -0.045038 16.3029 0.22749 -1.62569 -4.07226 -8.39375 2.03217e-16 0.0 3.88251e-19 -0.196623 -11.359 -2.39668 0.046233 16.6 -0.238167 1.26411 -6.11701 4.66179
6.17691 83.7304 -91.2654 -0.3252 -1.5761 4.9956 1.20617 5.79849 -1.83717 3.0442 -2.65552 -0.435417 -8.64152 -2.83399 -3.88386 8.21084 -9.21273 -4.23219 -0.0 0.0 0.0 -0.0 0.0 0.0 1.58727e-14 -3.97622e-14 3.74709e-14 77.8599 16.9023 0.944459 -14.8802 -7.68719 27.3427 -0.0349484 5.32838 0.751043 -4.84276e-10 3.50524e-10 2.43023e-10 -8.35212e-10 6.05667e-10 4.23764e-10 -4.84272e-10 3.50523e-10 2.43017e-10 7.73091 5.47488 0.417314 -4.84279e-10 3.50522e-10 2.43029e-10 2.90554 0.965183 0.102902 -4.84274e-10 3.50522e-10 2.43026e-10 10.2786 0.731801 0.0259123 -4.84279e-10 3.50524e-10 2.43036e-10 2.22167 -0.733487 -0.20892 1.59338e-14 -3.97517e-14 3.72721e-14 -80.7008 21.3345 -4.78673 12.6361 -5.90485 -22.8481 0.070301 7.54333 -1.06638 -5.25315e-10 -7.52942e-10 -8.92327e-10 -9.15067e-10 -1.30454e-09 -1.53989e-09 -5.25332e-10 -7.52957e-10 -8.92327e-10 -7.73091 5.47488 -0.417314 -5.25325e-10 -7.52959e-10 -8.92333e-10 -2.90554 0.965183 -0.102902 -5.25334e-10 -7.52961e-10 -8.92335e-10 -10.2786 0.731801 -0.0259123 -5.25307e-10 -7.52954e-10 -8.92333e-10 -2.22167 -0.733487 0.20892 -2.03217e-16 0.0 -3.88251e-19 1.90908 -12.921 5.66183 -0.0751217 19.8555 0.294723 -2.1577 -5.58764 -10.2954 2.03217e-16 0.0 3.88251e-19 -0.224848 -13.1946 -2.96209 0.0791717 20.2673 -0.308907 1.63258 -8.11524 5.69714
